<svg width="14" height="14" viewBox="0 0 14 14" fill="none" xmlns="http://www.w3.org/2000/svg">
<g clip-path="url(#clip0_122_36)">
<path d="M11.6667 1.75H10.8442C10.6911 1.75064 10.5445 1.8114 10.4358 1.91917L6.2475 6.1075C5.84192 5.92623 5.40258 5.83279 4.95833 5.83333C3.18642 5.83333 1.75 7.26975 1.75 9.04167C1.75 10.8136 3.18642 12.25 4.95833 12.25C6.73025 12.25 8.16667 10.8136 8.16667 9.04167C8.16568 8.60006 8.07437 8.16333 7.89833 7.75833L8.41167 7.245C8.51943 7.13635 8.58019 6.9897 8.58083 6.83667V6.41667C8.58094 6.30067 8.6271 6.18947 8.70917 6.1075L8.86083 5.95583C8.9428 5.87376 9.05401 5.8276 9.17 5.8275H10.2083C10.3694 5.8275 10.5 5.69692 10.5 5.53583V4.50917C10.5001 4.39317 10.5463 4.28197 10.6283 4.2H10.6575C10.707 4.13215 10.7838 4.08949 10.8675 4.08333H11.9583C12.1194 4.08333 12.25 3.95275 12.25 3.79167V2.33333C12.25 2.01117 11.9888 1.75 11.6667 1.75ZM4.34 10.8267C3.69567 10.8267 3.17333 10.3043 3.17333 9.66C3.17333 9.01567 3.69567 8.49333 4.34 8.49333C4.98433 8.49333 5.50667 9.01567 5.50667 9.66C5.50667 9.96942 5.38375 10.2662 5.16496 10.485C4.94617 10.7037 4.64942 10.8267 4.34 10.8267Z" fill="#333333"/>
</g>
<defs>
<clipPath id="clip0_122_36">
<rect width="14" height="14" fill="white"/>
</clipPath>
</defs>
</svg>
