<?xml version="1.0" standalone="no"?>
<!DOCTYPE svg PUBLIC "-//W3C//DTD SVG 20010904//EN"
 "http://www.w3.org/TR/2001/REC-SVG-20010904/DTD/svg10.dtd">
<svg version="1.0" xmlns="http://www.w3.org/2000/svg"
 width="1024.000000pt" height="1024.000000pt" viewBox="0 0 1024.000000 1024.000000"
 preserveAspectRatio="xMidYMid meet">

<g transform="translate(0.000000,1024.000000) scale(0.100000,-0.100000)"
fill="#000000" stroke="none">
<path d="M5576 7959 c-189 -28 -303 -85 -436 -218 -74 -74 -105 -115 -138
-178 -70 -135 -84 -205 -89 -445 l-5 -208 260 0 260 0 4 198 c3 220 10 246 71
279 29 16 76 18 532 21 l500 3 16 27 c9 15 73 119 141 232 68 113 137 226 152
253 l28 47 -619 -1 c-340 -1 -645 -5 -677 -10z m174 -76 c0 -8 4 -12 9 -9 5 3
7 15 4 26 -5 17 -2 18 26 10 19 -5 29 -5 26 1 -15 23 35 6 56 -20 13 -16 27
-27 31 -25 11 7 -3 34 -18 34 -8 0 -14 4 -14 10 0 9 73 5 108 -6 6 -2 12 1 12
6 0 5 13 5 30 0 16 -5 32 -5 34 -1 6 9 726 14 726 5 0 -4 -8 -14 -19 -23 -10
-9 -21 -26 -25 -39 -4 -12 -11 -20 -15 -17 -5 2 -14 -16 -21 -41 -8 -27 -23
-52 -37 -61 -12 -8 -23 -22 -23 -29 0 -19 -16 -18 -24 2 -4 9 -9 14 -13 11 -3
-4 -1 -13 6 -21 19 -22 -6 -66 -38 -67 -26 0 -26 0 -3 -11 25 -12 31 -41 7
-31 -9 3 -15 2 -14 -3 3 -21 -15 -55 -27 -50 -8 3 -18 -8 -26 -30 -12 -35 -17
-37 -62 -19 -15 7 -17 5 -11 -13 11 -37 -9 -24 -29 18 -24 49 -32 47 -11 -3 9
-22 11 -37 5 -37 -5 0 -10 5 -10 10 0 6 -4 10 -10 10 -5 0 -10 -7 -10 -16 0
-11 -5 -14 -16 -10 -9 3 -19 6 -24 6 -15 0 -72 53 -80 74 -7 18 -9 18 -9 3 -1
-10 7 -30 16 -45 17 -26 17 -27 -2 -12 -17 14 -18 13 -12 -2 3 -10 3 -18 -2
-18 -5 0 -12 11 -15 24 -7 28 -27 38 -47 24 -11 -8 -10 -9 3 -4 11 3 22 -2 29
-15 11 -21 3 -41 -9 -24 -4 6 -22 15 -40 22 -31 11 -33 10 -27 -9 7 -19 6 -19
-19 -3 -14 10 -23 21 -20 26 3 6 -4 26 -16 45 -19 34 -19 37 -4 49 15 10 13
12 -14 13 l-31 1 25 -45 c14 -24 22 -49 19 -54 -3 -5 -1 -20 6 -32 9 -18 9
-21 -1 -11 -7 6 -19 9 -26 6 -8 -3 -14 0 -14 7 0 6 5 8 10 5 6 -3 10 -2 10 4
0 5 -5 13 -10 16 -6 4 -10 14 -8 23 1 10 -5 31 -15 47 -9 17 -16 24 -17 17 0
-7 5 -22 10 -33 8 -13 8 -25 0 -37 -8 -13 -10 -13 -9 -2 2 26 -13 60 -27 60
-8 0 -13 9 -11 21 1 12 -4 24 -12 27 -10 3 -11 0 -5 -9 4 -8 7 -27 5 -43 -2
-17 1 -26 8 -22 6 4 8 -3 5 -19 -3 -16 0 -25 8 -25 15 0 42 -39 34 -48 -3 -3
-6 1 -6 9 0 10 -2 11 -8 2 -13 -20 -52 50 -59 106 -3 32 -11 51 -19 51 -7 0
-15 14 -19 30 -4 17 -11 30 -16 30 -12 0 -12 -5 6 -46 13 -33 13 -35 -3 -32
-9 2 -18 9 -18 16 -1 6 -2 20 -3 30 0 10 -16 26 -36 35 -19 9 -35 21 -35 27 0
13 17 13 25 0 3 -5 10 -10 15 -10 5 0 -2 12 -15 26 -25 27 -42 31 -37 8 2 -8
-4 -14 -12 -14 -18 0 -38 33 -31 52 3 7 -4 19 -15 26 -11 7 -20 8 -20 3 0 -6
4 -12 9 -15 14 -9 20 -46 8 -43 -6 1 -12 -10 -12 -24 -1 -17 4 -26 13 -25 8 1
17 -5 19 -11 3 -7 -2 -13 -11 -13 -19 0 -47 40 -49 72 0 12 -9 29 -19 36 -24
18 -23 36 2 29 11 -3 20 -1 20 4 0 5 -5 9 -11 9 -6 0 -8 9 -4 20 5 14 2 20 -9
20 -9 0 -16 5 -16 11 0 5 10 9 23 7 17 -2 21 1 19 17 -2 15 -1 17 6 6 12 -16
35 -5 25 12 -4 7 0 6 10 -2 9 -7 17 -20 17 -28z m-180 -7 c0 -3 -4 -8 -10 -11
-5 -3 -10 -1 -10 4 0 6 5 11 10 11 6 0 10 -2 10 -4z m24 -18 c-5 -7 -1 -9 9
-5 9 3 19 2 22 -2 8 -14 -26 -22 -41 -10 -14 11 -8 42 7 33 5 -3 6 -10 3 -16z
m41 -45 c14 -34 23 -83 15 -83 -13 0 -21 -33 -10 -44 5 -5 10 -15 10 -22 0
-19 -39 -4 -46 18 -3 11 -11 17 -17 15 -8 -3 -12 8 -11 29 1 31 14 64 14 35 0
-13 31 -11 42 3 3 6 0 19 -8 30 -8 11 -14 24 -14 28 0 15 18 8 25 -9z m-88 -7
c-10 -8 -19 -23 -20 -34 0 -11 -5 -18 -9 -16 -21 13 -5 -40 19 -62 14 -13 23
-27 20 -31 -4 -3 -7 -1 -7 5 0 7 -4 12 -10 12 -23 0 -48 39 -47 73 0 20 4 34
9 31 4 -3 16 4 28 16 11 11 23 20 28 20 4 0 -1 -7 -11 -14z m48 4 c3 -6 -1 -7
-9 -4 -18 7 -21 14 -7 14 6 0 13 -4 16 -10z m-35 -70 c0 -5 -4 -10 -10 -10 -5
0 -10 5 -10 10 0 6 5 10 10 10 6 0 10 -4 10 -10z m230 -38 c0 -13 -12 -22 -22
-16 -10 6 -1 24 13 24 5 0 9 -4 9 -8z m-96 -27 c3 -8 1 -15 -4 -15 -6 0 -10 7
-10 15 0 8 2 15 4 15 2 0 6 -7 10 -15z m146 -27 c0 -6 -7 -5 -15 2 -12 10 -15
10 -15 -4 0 -9 -4 -16 -9 -16 -5 0 -16 -7 -24 -15 -13 -12 -17 -12 -32 5 -10
11 -15 23 -11 27 4 4 11 1 16 -7 7 -11 10 -12 10 -2 0 7 4 11 9 8 4 -3 17 3
27 13 19 18 44 12 44 -11z m-375 2 c3 -5 2 -10 -4 -10 -5 0 -13 5 -16 10 -3 6
-2 10 4 10 5 0 13 -4 16 -10z m141 -15 c-3 -9 0 -18 8 -21 14 -5 18 -36 4 -32
-5 2 -9 7 -8 11 0 5 -9 17 -22 28 -16 13 -18 17 -5 13 9 -3 17 -1 17 5 0 6 3
11 6 11 3 0 3 -7 0 -15z m77 -9 c25 -19 21 -26 -8 -13 -14 7 -25 15 -25 20 0
11 13 8 33 -7z m133 -22 c-5 -14 -9 -15 -19 -5 -9 9 -9 14 3 21 18 11 24 6 16
-16z m50 -12 c14 -33 10 -39 -16 -22 -12 8 -12 10 -1 10 11 0 11 4 -2 18 -19
21 -22 35 -6 30 6 -2 17 -18 25 -36z m-81 -12 c3 -5 -1 -10 -10 -10 -9 0 -13
5 -10 10 3 6 8 10 10 10 2 0 7 -4 10 -10z m121 -4 c15 -16 19 -36 7 -36 -5 0
-13 11 -20 25 -13 28 -8 32 13 11z m-156 -6 c0 -5 -4 -10 -10 -10 -5 0 -10 5
-10 10 0 6 5 10 10 10 6 0 10 -4 10 -10z m-130 -20 c0 -5 -2 -10 -4 -10 -3 0
-8 5 -11 10 -3 6 -1 10 4 10 6 0 11 -4 11 -10z m194 -35 c10 -21 22 -33 28
-29 7 4 8 2 4 -4 -16 -26 -54 1 -47 33 1 5 -6 15 -15 22 -15 11 -15 13 -2 13
9 0 23 -16 32 -35z m46 25 c0 -5 -4 -10 -10 -10 -5 0 -10 5 -10 10 0 6 5 10
10 10 6 0 10 -4 10 -10z m-126 -24 c-6 -15 -24 -23 -24 -11 0 8 24 34 28 30 1
-1 0 -10 -4 -19z m191 10 c0 0 6 -11 13 -23 7 -13 8 -23 3 -23 -5 0 -12 9 -16
19 -4 13 -12 17 -25 14 -14 -4 -20 0 -20 12 0 12 5 15 23 9 12 -3 22 -7 22 -8z
m-232 -16 c3 -11 3 -20 1 -20 -2 0 -8 9 -14 20 -6 11 -7 20 -2 20 6 0 12 -9
15 -20z m217 -14 c0 -3 -4 -8 -10 -11 -5 -3 -10 -1 -10 4 0 6 5 11 10 11 6 0
10 -2 10 -4z m-145 -26 c3 -5 1 -10 -4 -10 -6 0 -11 5 -11 10 0 6 2 10 4 10 3
0 8 -4 11 -10z m170 -10 c3 -5 1 -10 -4 -10 -6 0 -11 5 -11 10 0 6 2 10 4 10
3 0 8 -4 11 -10z m555 -33 c8 -3 -201 -5 -465 -4 l-480 1 455 6 c250 4 456 7
458 8 2 1 0 8 -3 15 -4 6 -1 5 7 -4 7 -9 20 -18 28 -22z m-1553 -169 c-2 -13
-4 -5 -4 17 -1 22 1 32 4 23 2 -10 2 -28 0 -40z m266 -325 c-7 -2 -21 -2 -30
0 -10 3 -4 5 12 5 17 0 24 -2 18 -5z"/>
<path d="M5835 7890 c-3 -5 -1 -10 4 -10 6 0 11 5 11 10 0 6 -2 10 -4 10 -3 0
-8 -4 -11 -10z"/>
<path d="M5928 7893 c7 -3 16 -2 19 1 4 3 -2 6 -13 5 -11 0 -14 -3 -6 -6z"/>
<path d="M5966 7887 c3 -10 9 -15 12 -12 3 3 0 11 -7 18 -10 9 -11 8 -5 -6z"/>
<path d="M6100 7878 c0 -9 65 -78 74 -78 10 0 -28 49 -38 50 -5 0 -15 8 -22
18 -7 9 -14 14 -14 10z"/>
<path d="M6675 7860 c3 -5 8 -10 11 -10 2 0 4 5 4 10 0 6 -5 10 -11 10 -5 0
-7 -4 -4 -10z"/>
<path d="M5701 7851 c-9 -6 -10 -11 -2 -15 6 -4 11 -4 11 0 0 3 7 1 15 -6 8
-7 15 -8 15 -2 0 17 -25 31 -39 23z"/>
<path d="M5862 7840 c0 -14 2 -19 5 -12 2 6 2 18 0 25 -3 6 -5 1 -5 -13z"/>
<path d="M6010 7850 c0 -5 5 -10 11 -10 5 0 7 5 4 10 -3 6 -8 10 -11 10 -2 0
-4 -4 -4 -10z"/>
<path d="M5782 7828 c2 -6 10 -14 16 -16 7 -2 10 2 6 12 -7 18 -28 22 -22 4z"/>
<path d="M5835 7830 c-3 -5 -1 -10 4 -10 6 0 11 5 11 10 0 6 -2 10 -4 10 -3 0
-8 -4 -11 -10z"/>
<path d="M5750 7823 c0 -4 5 -15 10 -23 8 -13 10 -13 10 2 0 9 -4 20 -10 23
-5 3 -10 3 -10 -2z"/>
<path d="M5905 7820 c3 -5 8 -10 11 -10 2 0 4 5 4 10 0 6 -5 10 -11 10 -5 0
-7 -4 -4 -10z"/>
<path d="M6280 7805 c7 -8 17 -15 22 -15 6 0 5 7 -2 15 -7 8 -17 15 -22 15 -6
0 -5 -7 2 -15z"/>
<path d="M5820 7791 c0 -5 5 -13 10 -16 6 -3 10 -2 10 4 0 5 -4 13 -10 16 -5
3 -10 2 -10 -4z"/>
<path d="M5690 7784 c0 -17 17 -36 24 -26 3 5 -1 15 -9 22 -8 7 -15 9 -15 4z"/>
<path d="M6176 7775 c4 -8 10 -13 14 -10 5 3 11 1 15 -5 3 -5 11 -10 17 -10 6
0 -1 9 -15 20 -30 24 -38 25 -31 5z"/>
<path d="M6635 7780 c-3 -6 1 -7 9 -4 18 7 21 14 7 14 -6 0 -13 -4 -16 -10z"/>
<path d="M5880 7770 c0 -5 5 -10 11 -10 5 0 7 5 4 10 -3 6 -8 10 -11 10 -2 0
-4 -4 -4 -10z"/>
<path d="M5840 7750 c0 -5 5 -10 10 -10 6 0 10 5 10 10 0 6 -4 10 -10 10 -5 0
-10 -4 -10 -10z"/>
<path d="M6115 7750 c3 -5 8 -10 11 -10 2 0 4 5 4 10 0 6 -5 10 -11 10 -5 0
-7 -4 -4 -10z"/>
<path d="M5987 7730 c-3 -11 -1 -20 4 -20 5 0 9 9 9 20 0 11 -2 20 -4 20 -2 0
-6 -9 -9 -20z"/>
<path d="M5860 7707 c0 -7 12 -14 27 -15 26 -2 26 -1 7 13 -24 18 -34 19 -34
2z"/>
<path d="M6010 7706 c0 -2 7 -9 15 -16 9 -7 15 -8 15 -2 0 5 -7 12 -15 16 -8
3 -15 4 -15 2z"/>
<path d="M5980 7680 c0 -5 5 -10 10 -10 6 0 10 5 10 10 0 6 -4 10 -10 10 -5 0
-10 -4 -10 -10z"/>
<path d="M5928 7673 c7 -3 16 -2 19 1 4 3 -2 6 -13 5 -11 0 -14 -3 -6 -6z"/>
<path d="M6180 7671 c0 -5 7 -12 16 -15 14 -5 15 -4 4 9 -14 17 -20 19 -20 6z"/>
<path d="M6031 7641 c-8 -5 -9 -11 -3 -15 5 -3 12 1 16 9 6 17 6 18 -13 6z"/>
<path d="M6506 7626 c21 -15 30 -14 19 3 -3 6 -14 11 -23 11 -13 0 -13 -2 4
-14z"/>
<path d="M6130 7620 c0 -5 5 -10 11 -10 5 0 7 5 4 10 -3 6 -8 10 -11 10 -2 0
-4 -4 -4 -10z"/>
<path d="M6237 7580 c3 -11 9 -20 13 -20 5 0 6 9 3 20 -3 11 -9 20 -13 20 -5
0 -6 -9 -3 -20z"/>
<path d="M6097 7563 c3 -10 10 -23 14 -29 5 -6 7 -13 5 -15 -2 -2 7 -5 20 -5
l24 -2 -25 20 c-14 11 -25 26 -25 34 0 8 -4 14 -10 14 -5 0 -7 -8 -3 -17z"/>
<path d="M6450 7565 c7 -9 15 -13 17 -11 7 7 -7 26 -19 26 -6 0 -6 -6 2 -15z"/>
<path d="M6334 7545 c0 -14 4 -25 8 -25 4 0 10 -9 13 -20 4 -11 11 -17 17 -14
7 4 7 9 0 13 -6 3 -14 19 -17 34 -9 36 -23 44 -21 12z"/>
<path d="M6460 7525 c0 -8 4 -15 10 -15 5 0 7 7 4 15 -4 8 -8 15 -10 15 -2 0
-4 -7 -4 -15z"/>
<path d="M6420 7520 c0 -5 7 -10 16 -10 8 0 12 5 9 10 -3 6 -10 10 -16 10 -5
0 -9 -4 -9 -10z"/>
<path d="M6287 7509 c7 -7 15 -10 18 -7 3 3 -2 9 -12 12 -14 6 -15 5 -6 -5z"/>
<path d="M6320 7504 c0 -5 7 -19 15 -30 8 -10 15 -14 15 -8 0 5 -7 19 -15 30
-8 10 -15 14 -15 8z"/>
<path d="M5603 7733 c-10 -4 -10 -10 -2 -25 11 -20 12 -20 21 -4 11 20 0 36
-19 29z"/>
<path d="M4361 7902 c-127 -124 -186 -256 -185 -412 0 -79 5 -106 27 -159 26
-65 86 -161 100 -161 4 0 7 26 7 59 0 68 25 113 80 145 32 19 55 21 241 24
l206 3 22 71 c60 185 181 343 345 450 l59 38 -421 0 -421 0 -60 -58z m-164
-469 c-3 -10 -5 -4 -5 12 0 17 2 24 5 18 2 -7 2 -21 0 -30z"/>
<path d="M4167 7900 c-134 -68 -179 -100 -272 -195 -143 -144 -205 -283 -213
-476 -10 -247 60 -426 228 -581 43 -40 102 -87 132 -104 413 -242 539 -323
634 -406 33 -29 82 -77 108 -106 l46 -53 -2 376 -3 377 -175 100 c-399 228
-499 323 -550 524 -48 185 -8 362 119 527 28 37 50 67 49 67 -2 0 -47 -23
-101 -50z"/>
<path d="M5598 6812 c-379 -1 -688 -5 -688 -10 0 -4 39 -32 86 -62 167 -106
311 -265 374 -412 l25 -58 302 0 301 0 50 93 c28 50 95 172 150 270 55 97 97
178 94 180 -4 1 -316 1 -694 -1z"/>
<path d="M4923 6090 c7 -654 5 -686 -56 -813 -19 -40 -53 -93 -76 -119 -22
-25 -41 -48 -41 -51 0 -3 30 5 68 17 275 94 471 293 543 551 27 98 30 273 7
380 -21 93 -69 215 -115 294 -62 104 -186 228 -307 307 l-29 18 6 -584z"/>
<path d="M4714 5903 c1 -87 -23 -150 -74 -197 -70 -63 -95 -66 -544 -66 l-401
0 -151 -278 -151 -277 561 -3 c478 -2 567 0 606 13 107 36 210 153 252 288 32
102 32 322 0 413 -22 63 -81 174 -93 174 -3 0 -6 -30 -5 -67z"/>
<path d="M7159 4551 c-20 -20 -29 -39 -29 -61 0 -45 47 -90 95 -90 51 0 85 36
85 90 0 85 -90 121 -151 61z"/>
<path d="M4738 4542 l-68 -3 0 -359 0 -360 75 0 75 0 0 170 0 170 28 31 c23
25 38 33 79 36 45 5 53 2 84 -25 l34 -30 3 -176 4 -176 69 0 69 0 0 189 c0
187 0 189 -28 242 -37 71 -89 99 -181 99 -67 0 -140 -24 -157 -51 -6 -9 -11
36 -14 116 l-5 130 -67 -3z"/>
<path d="M2417 4506 c-96 -27 -157 -101 -157 -189 0 -122 59 -166 294 -221 78
-18 116 -46 116 -86 0 -92 -155 -114 -310 -44 -33 15 -62 25 -64 23 -2 -2 -16
-28 -30 -57 l-27 -53 58 -26 c125 -55 286 -64 383 -22 89 39 130 99 130 189 0
114 -62 164 -261 209 -104 24 -139 46 -139 87 0 40 17 62 58 74 69 19 154 7
253 -34 12 -5 21 5 37 45 12 28 20 55 17 59 -3 5 -31 19 -63 31 -72 27 -224
35 -295 15z"/>
<path d="M6802 4493 l-252 -3 2 -333 3 -332 73 -3 72 -3 0 135 0 134 160 -1
160 -2 0 58 0 57 -160 0 -160 0 0 90 0 90 180 0 180 0 0 60 c0 33 -1 59 -2 58
-2 -2 -117 -4 -256 -5z"/>
<path d="M7450 4408 l0 -68 -50 0 -50 0 0 -61 0 -62 49 5 49 5 3 -158 c5 -180
11 -196 89 -236 48 -25 103 -29 163 -12 46 12 52 25 38 77 l-11 39 -41 -11
c-32 -8 -45 -7 -66 4 -36 20 -44 59 -41 188 l3 107 75 1 75 1 1 57 1 56 -79 0
-79 0 3 66 3 66 -68 1 -67 2 0 -67z"/>
<path d="M2833 4338 c3 -7 55 -127 116 -267 116 -266 121 -286 78 -316 -29
-20 -66 -19 -104 5 l-33 20 -25 -50 c-14 -27 -25 -53 -25 -59 0 -17 83 -42
144 -44 79 -2 131 24 169 85 15 24 83 177 150 339 l123 294 -70 3 c-55 2 -73
-1 -82 -13 -6 -8 -40 -94 -75 -190 -56 -153 -79 -201 -79 -165 0 6 -30 91 -66
190 l-67 180 -80 0 c-59 0 -78 -3 -74 -12z"/>
<path d="M3477 4343 c-4 -3 -7 -123 -7 -265 l0 -258 75 0 75 0 0 148 c0 165 9
212 47 242 31 24 101 27 142 5 43 -22 51 -60 51 -236 l0 -159 76 0 76 0 -4
183 c-5 198 -13 235 -66 291 -38 40 -81 56 -152 56 -66 0 -122 -19 -157 -52
l-23 -21 0 36 0 37 -63 0 c-35 0 -67 -3 -70 -7z"/>
<path d="M4222 4320 c-97 -49 -142 -123 -143 -235 -1 -109 48 -191 146 -243
44 -24 61 -27 145 -27 83 0 101 3 145 26 28 15 59 37 69 48 20 22 20 22 -21
63 l-41 41 -32 -26 c-45 -39 -101 -53 -149 -39 -104 32 -151 135 -102 230 25
48 67 72 126 72 51 0 77 -10 115 -46 l25 -23 48 31 c26 17 47 36 47 42 0 17
-58 70 -100 92 -24 12 -64 19 -125 22 -85 3 -93 2 -153 -28z"/>
<path d="M5300 4085 l0 -266 70 3 70 3 3 145 c3 157 11 188 59 223 15 11 49
22 77 25 l51 5 0 63 c0 63 0 64 -27 64 -53 0 -101 -21 -132 -56 l-31 -35 0 46
0 45 -70 0 -70 0 0 -265z"/>
<path d="M5827 4336 c-109 -40 -177 -138 -177 -256 0 -169 127 -279 309 -268
126 7 220 72 256 177 43 125 -15 274 -129 333 -52 28 -201 36 -259 14z m190
-126 c43 -26 63 -68 63 -133 0 -140 -145 -205 -242 -108 -64 65 -64 157 2 223
34 35 42 38 91 38 36 0 65 -7 86 -20z"/>
<path d="M7150 4080 l0 -260 70 0 70 0 0 260 0 260 -70 0 -70 0 0 -260z"/>
</g>
</svg>
